<svg width="24" height="24" viewBox="0 0 24 24" fill="none" xmlns="http://www.w3.org/2000/svg">
<path d="M8.25 23.25C6.16667 23.25 4.39583 22.5208 2.9375 21.0625C1.47917 19.6042 0.75 17.8333 0.75 15.75V8.25C0.75 6.16667 1.47917 4.39583 2.9375 2.9375C4.39583 1.47917 6.16667 0.75 8.25 0.75H15.75C17.8333 0.75 19.6042 1.47917 21.0625 2.9375C22.5208 4.39583 23.25 6.16667 23.25 8.25V15.75C23.25 17.8333 22.5208 19.6042 21.0625 21.0625C19.6042 22.5208 17.8333 23.25 15.75 23.25H8.25ZM10.75 17L18.25 9.5L16.5 7.75L10.75 13.5L8 10.75L6.25 12.5L10.75 17ZM8.25 20.75H15.75C17.125 20.75 18.3021 20.2604 19.2812 19.2812C20.2604 18.3021 20.75 17.125 20.75 15.75V8.25C20.75 6.875 20.2604 5.69792 19.2812 4.71875C18.3021 3.73958 17.125 3.25 15.75 3.25H8.25C6.875 3.25 5.69792 3.73958 4.71875 4.71875C3.73958 5.69792 3.25 6.875 3.25 8.25V15.75C3.25 17.125 3.73958 18.3021 4.71875 19.2812C5.69792 20.2604 6.875 20.75 8.25 20.75Z" fill="#7F56D9"/>
</svg>
