<svg width="54" height="25" viewBox="0 0 54 25" fill="none" xmlns="http://www.w3.org/2000/svg">
<path d="M17.9 14.9545V5C17.9 4.39249 18.3925 3.9 19 3.9H24.6364C24.6916 3.9 24.7364 3.94477 24.7364 4V14.9545C24.7364 15.0098 24.6916 15.0545 24.6364 15.0545H18C17.9448 15.0545 17.9 15.0098 17.9 14.9545ZM28.7955 3.9H34C34.6075 3.9 35.1 4.39249 35.1 5V10.6364C35.1 10.6916 35.0552 10.7364 35 10.7364H28.7955C28.7402 10.7364 28.6955 10.6916 28.6955 10.6364V4C28.6955 3.94477 28.7402 3.9 28.7955 3.9ZM28.7955 14.2636H35C35.0552 14.2636 35.1 14.3084 35.1 14.3636V20C35.1 20.6075 34.6075 21.1 34 21.1H28.7955C28.7402 21.1 28.6955 21.0552 28.6955 21V14.3636C28.6955 14.3084 28.7402 14.2636 28.7955 14.2636ZM17.9 20V18.6818C17.9 18.6266 17.9448 18.5818 18 18.5818H24.6364C24.6916 18.5818 24.7364 18.6266 24.7364 18.6818V21C24.7364 21.0552 24.6916 21.1 24.6364 21.1H19C18.3925 21.1 17.9 20.6075 17.9 20Z" fill="#7C8A94" stroke="#7C8A94" stroke-width="1.8"/>
</svg>
