<svg width="20" height="21" viewBox="0 0 20 21" fill="none" xmlns="http://www.w3.org/2000/svg">
<path d="M6.875 15.1882C6.14583 15.1882 5.52951 14.9364 5.02604 14.4329C4.52257 13.9295 4.27083 13.3132 4.27083 12.584C4.27083 11.8548 4.52257 11.2385 5.02604 10.735C5.52951 10.2316 6.14583 9.97982 6.875 9.97982C7.60417 9.97982 8.22049 10.2316 8.72396 10.735C9.22743 11.2385 9.47917 11.8548 9.47917 12.584C9.47917 13.3132 9.22743 13.9295 8.72396 14.4329C8.22049 14.9364 7.60417 15.1882 6.875 15.1882ZM2.70833 20.9173C2.13542 20.9173 1.64497 20.7133 1.23698 20.3053C0.828993 19.8974 0.625 19.4069 0.625 18.834V4.25065C0.625 3.67773 0.828993 3.18728 1.23698 2.7793C1.64497 2.37131 2.13542 2.16732 2.70833 2.16732H3.75V0.0839844H5.83333V2.16732H14.1667V0.0839844H16.25V2.16732H17.2917C17.8646 2.16732 18.355 2.37131 18.763 2.7793C19.171 3.18728 19.375 3.67773 19.375 4.25065V18.834C19.375 19.4069 19.171 19.8974 18.763 20.3053C18.355 20.7133 17.8646 20.9173 17.2917 20.9173H2.70833ZM2.70833 18.834H17.2917V8.41732H2.70833V18.834ZM2.70833 6.33398H17.2917V4.25065H2.70833V6.33398Z" fill="#7C8A94"/>
</svg>
