<svg width="55" height="25" viewBox="0 0 55 25" fill="none" xmlns="http://www.w3.org/2000/svg">
<path d="M16.708 20.8333V17.9166C16.708 17.3263 16.8599 16.7838 17.1637 16.289C17.4676 15.7942 17.8712 15.4166 18.3747 15.1562C19.4511 14.618 20.5448 14.2144 21.6559 13.9453C22.767 13.6762 23.8955 13.5416 25.0413 13.5416C26.1872 13.5416 27.3156 13.6762 28.4268 13.9453C29.5379 14.2144 30.6316 14.618 31.708 15.1562C32.2115 15.4166 32.6151 15.7942 32.9189 16.289C33.2228 16.7838 33.3747 17.3263 33.3747 17.9166V20.8333H16.708ZM35.458 20.8333V17.7083C35.458 16.9444 35.2453 16.2109 34.82 15.5078C34.3946 14.8046 33.7913 14.2013 33.0101 13.6979C33.8955 13.802 34.7288 13.98 35.5101 14.2317C36.2913 14.4835 37.0205 14.7916 37.6976 15.1562C38.3226 15.5034 38.8 15.8897 39.1299 16.3151C39.4597 16.7404 39.6247 17.2048 39.6247 17.7083V20.8333H35.458ZM25.0413 12.5C23.8955 12.5 22.9146 12.092 22.0986 11.276C21.2827 10.46 20.8747 9.47913 20.8747 8.33329C20.8747 7.18746 21.2827 6.20656 22.0986 5.39058C22.9146 4.57461 23.8955 4.16663 25.0413 4.16663C26.1872 4.16663 27.1681 4.57461 27.984 5.39058C28.8 6.20656 29.208 7.18746 29.208 8.33329C29.208 9.47913 28.8 10.46 27.984 11.276C27.1681 12.092 26.1872 12.5 25.0413 12.5ZM35.458 8.33329C35.458 9.47913 35.05 10.46 34.234 11.276C33.4181 12.092 32.4372 12.5 31.2913 12.5C31.1004 12.5 30.8573 12.4783 30.5622 12.4349C30.267 12.3915 30.024 12.3437 29.833 12.2916C30.3018 11.7361 30.662 11.1198 30.9137 10.4427C31.1655 9.76558 31.2913 9.06246 31.2913 8.33329C31.2913 7.60413 31.1655 6.901 30.9137 6.22392C30.662 5.54683 30.3018 4.93051 29.833 4.37496C30.0761 4.28815 30.3191 4.23173 30.5622 4.20569C30.8052 4.17965 31.0483 4.16663 31.2913 4.16663C32.4372 4.16663 33.4181 4.57461 34.234 5.39058C35.05 6.20656 35.458 7.18746 35.458 8.33329ZM18.7913 18.75H31.2913V17.9166C31.2913 17.7257 31.2436 17.552 31.1481 17.3958C31.0526 17.2395 30.9268 17.118 30.7705 17.0312C29.833 16.5625 28.8868 16.2109 27.932 15.9765C26.9771 15.7421 26.0136 15.625 25.0413 15.625C24.0691 15.625 23.1056 15.7421 22.1507 15.9765C21.1959 16.2109 20.2497 16.5625 19.3122 17.0312C19.1559 17.118 19.0301 17.2395 18.9346 17.3958C18.8391 17.552 18.7913 17.7257 18.7913 17.9166V18.75ZM25.0413 10.4166C25.6143 10.4166 26.1047 10.2126 26.5127 9.80465C26.9207 9.39666 27.1247 8.90621 27.1247 8.33329C27.1247 7.76038 26.9207 7.26992 26.5127 6.86194C26.1047 6.45395 25.6143 6.24996 25.0413 6.24996C24.4684 6.24996 23.978 6.45395 23.57 6.86194C23.162 7.26992 22.958 7.76038 22.958 8.33329C22.958 8.90621 23.162 9.39666 23.57 9.80465C23.978 10.2126 24.4684 10.4166 25.0413 10.4166Z" fill="#7F56D9"/>
</svg>
