<svg width="15" height="15" viewBox="0 0 15 15" fill="none" xmlns="http://www.w3.org/2000/svg">
<path d="M7.5 15C11.6421 15 15 11.6421 15 7.5C15 3.35786 11.6421 0 7.5 0C3.35786 0 0 3.35786 0 7.5C0 11.6421 3.35786 15 7.5 15Z" fill="#4DB839"/>
<path d="M11.9976 7.026V7.971C11.9976 8.3025 11.7276 8.5725 11.3961 8.5725H8.56859V11.3985C8.56859 11.73 8.30159 12 7.97009 12H7.02509C6.69359 12 6.42359 11.73 6.42359 11.3985V8.5725H3.59759C3.26609 8.5725 2.99609 8.3025 2.99609 7.971V7.026C2.99609 6.6945 3.26609 6.4245 3.59759 6.4245H6.42359V3.5985C6.42359 3.267 6.69359 3 7.02509 3H7.97009C8.30159 3 8.56859 3.267 8.56859 3.5985V6.4245H11.3961C11.7276 6.4245 11.9976 6.6945 11.9976 7.026Z" fill="white"/>
</svg>
