<svg width="22" height="22" viewBox="0 0 22 22" fill="none" xmlns="http://www.w3.org/2000/svg">
<path d="M3.66659 18.3333C3.16242 18.3333 2.73082 18.1538 2.37179 17.7948C2.01277 17.4358 1.83325 17.0042 1.83325 16.5V5.5C1.83325 4.99583 2.01277 4.56424 2.37179 4.20521C2.73082 3.84618 3.16242 3.66667 3.66659 3.66667H14.6666C15.1708 3.66667 15.6023 3.84618 15.9614 4.20521C16.3204 4.56424 16.4999 4.99583 16.4999 5.5V9.625L20.1666 5.95833V16.0417L16.4999 12.375V16.5C16.4999 17.0042 16.3204 17.4358 15.9614 17.7948C15.6023 18.1538 15.1708 18.3333 14.6666 18.3333H3.66659ZM3.66659 16.5H14.6666V5.5H3.66659V16.5Z" fill="#079455"/>
</svg>
