<svg width="48" height="48" viewBox="0 0 48 48" fill="none" xmlns="http://www.w3.org/2000/svg">
<path d="M0 24C0 10.7452 10.7452 0 24 0C37.2548 0 48 10.7452 48 24C48 37.2548 37.2548 48 24 48C10.7452 48 0 37.2548 0 24Z" fill="#2E90FA" fill-opacity="0.2"/>
<path d="M15 34H24M23 18.252C23.6392 18.0875 24.3094 18 25 18C29.4183 18 33 21.5817 33 26C33 29.3574 30.9318 32.2317 28 33.4185M17.5 25H21.5C21.9647 25 22.197 25 22.3902 25.0384C23.1836 25.1962 23.8038 25.8164 23.9616 26.6098C24 26.803 24 27.0353 24 27.5C24 27.9647 24 28.197 23.9616 28.3902C23.8038 29.1836 23.1836 29.8038 22.3902 29.9616C22.197 30 21.9647 30 21.5 30H17.5C17.0353 30 16.803 30 16.6098 29.9616C15.8164 29.8038 15.1962 29.1836 15.0384 28.3902C15 28.197 15 27.9647 15 27.5C15 27.0353 15 26.803 15.0384 26.6098C15.1962 25.8164 15.8164 25.1962 16.6098 25.0384C16.803 25 17.0353 25 17.5 25ZM16 17.5V25H23V17.5C23 15.567 21.433 14 19.5 14C17.567 14 16 15.567 16 17.5Z" stroke="#2E90FA" stroke-width="2" stroke-linecap="round" stroke-linejoin="round"/>
</svg>
