<svg width="136" height="133" viewBox="0 0 136 133" fill="none" xmlns="http://www.w3.org/2000/svg">
<g clip-path="url(#clip0_1385_15699)">
<path d="M86.3384 29.9113H49.6923C48.8572 29.9123 48.0566 30.2451 47.4661 30.8367C46.8756 31.4283 46.5434 32.2304 46.5424 33.0671V114.665L46.1224 114.793L37.1326 117.551C36.7065 117.682 36.2463 117.637 35.853 117.428C35.4597 117.218 35.1654 116.861 35.0348 116.434L8.29401 28.9246C8.16387 28.4978 8.20823 28.0366 8.41732 27.6425C8.62641 27.2484 8.98314 26.9536 9.40909 26.8229L23.2625 22.5731L63.4239 10.2571L77.2772 6.00734C77.488 5.94234 77.7095 5.91962 77.9291 5.9405C78.1487 5.96137 78.3621 6.02543 78.5569 6.129C78.7518 6.23256 78.9244 6.37361 79.0647 6.54407C79.2051 6.71453 79.3106 6.91105 79.3751 7.12239L86.2103 29.4905L86.3384 29.9113Z" fill="#F2F2F2"/>
<path d="M94.335 29.4904L86.0969 2.53161C85.9598 2.08243 85.7358 1.66471 85.4375 1.30231C85.1393 0.93992 84.7726 0.63996 84.3586 0.419573C83.9446 0.199185 83.4913 0.0626884 83.0246 0.0178872C82.5579 -0.0269141 82.087 0.0208582 81.6387 0.158469L62.1617 6.1313L22.0025 18.4494L2.52549 24.4243C1.62069 24.7026 0.863089 25.3293 0.41898 26.1667C-0.0251287 27.0041 -0.119464 27.9838 0.156686 28.8908L28.3128 121.025C28.5371 121.757 28.9897 122.398 29.6043 122.853C30.2188 123.309 30.9629 123.555 31.7273 123.556C32.0811 123.556 32.4329 123.503 32.7709 123.398L46.1224 119.304L46.5424 119.173V118.734L46.1224 118.862L32.6471 122.996C31.8484 123.24 30.9858 123.157 30.2485 122.764C29.5111 122.372 28.9592 121.702 28.7139 120.903L0.559961 28.7667C0.438393 28.3705 0.396024 27.9542 0.435277 27.5416C0.47453 27.129 0.594632 26.7282 0.788713 26.3621C0.982794 25.9961 1.24704 25.672 1.56632 25.4085C1.88559 25.1449 2.25362 24.947 2.64934 24.8261L22.1263 18.8512L62.2857 6.53525L81.7627 0.560309C82.0628 0.468539 82.3749 0.421747 82.6887 0.421454C83.3622 0.422969 84.0175 0.640498 84.5586 1.04218C85.0998 1.44386 85.4983 2.00859 85.6959 2.65364L93.8961 29.4904L94.0263 29.9111H94.4632L94.335 29.4904Z" fill="#8C959F"/>
<path d="M25.7622 26.8916C25.3575 26.8913 24.9635 26.7611 24.6381 26.52C24.3126 26.2789 24.0728 25.9397 23.9539 25.5521L21.2491 16.7008C21.1764 16.4631 21.1512 16.2133 21.1749 15.9658C21.1986 15.7182 21.2707 15.4778 21.3871 15.2582C21.5036 15.0386 21.6621 14.8442 21.8535 14.6859C22.045 14.5277 22.2657 14.4088 22.503 14.3361L59.4492 3.00391C59.9285 2.85738 60.4462 2.90736 60.8888 3.14286C61.3313 3.37837 61.6626 3.78016 61.8097 4.26006L64.5145 13.1114C64.6607 13.5916 64.6108 14.1103 64.3757 14.5536C64.1407 14.997 63.7397 15.3288 63.2607 15.4763L26.3144 26.8085C26.1355 26.8635 25.9494 26.8915 25.7622 26.8916Z" fill="#8C959F"/>
<path d="M39.9311 9.45777C42.2506 9.45777 44.131 7.57391 44.131 5.25006C44.131 2.92621 42.2506 1.04236 39.9311 1.04236C37.6116 1.04236 35.7312 2.92621 35.7312 5.25006C35.7312 7.57391 37.6116 9.45777 39.9311 9.45777Z" fill="#8C959F"/>
<path d="M39.9312 7.91459C41.4 7.91459 42.5907 6.72168 42.5907 5.25014C42.5907 3.77861 41.4 2.58569 39.9312 2.58569C38.4624 2.58569 37.2717 3.77861 37.2717 5.25014C37.2717 6.72168 38.4624 7.91459 39.9312 7.91459Z" fill="white"/>
<path d="M126.55 125.481H55.5721C55.0988 125.48 54.6451 125.292 54.3105 124.956C53.9759 124.621 53.7877 124.167 53.7871 123.693V38.4865C53.7876 38.0124 53.9759 37.5579 54.3105 37.2226C54.6451 36.8873 55.0988 36.6988 55.5721 36.6982H126.55C127.023 36.6988 127.477 36.8874 127.812 37.2226C128.146 37.5579 128.335 38.0124 128.335 38.4865V123.693C128.335 124.167 128.146 124.621 127.812 124.956C127.477 125.292 127.023 125.48 126.55 125.481Z" fill="#E6E6E6"/>
<path d="M93.896 29.4905H49.6922C48.7458 29.4918 47.8386 29.8691 47.1694 30.5395C46.5002 31.21 46.1237 32.1189 46.1223 33.067V118.862L46.5423 118.734V33.067C46.5433 32.2304 46.8755 31.4283 47.466 30.8367C48.0565 30.2451 48.8571 29.9123 49.6922 29.9112H94.0263L93.896 29.4905ZM132.43 29.4905H49.6922C48.7458 29.4918 47.8386 29.8691 47.1694 30.5395C46.5002 31.21 46.1237 32.1189 46.1223 33.067V129.423C46.1237 130.372 46.5002 131.281 47.1694 131.951C47.8386 132.621 48.7458 132.999 49.6922 133H132.43C133.376 132.999 134.284 132.621 134.953 131.951C135.622 131.281 135.999 130.372 136 129.423V33.067C135.999 32.1189 135.622 31.21 134.953 30.5395C134.284 29.8691 133.376 29.4918 132.43 29.4905ZM135.58 129.423C135.579 130.26 135.247 131.062 134.656 131.654C134.066 132.245 133.265 132.578 132.43 132.579H49.6922C48.8571 132.578 48.0565 132.245 47.466 131.654C46.8755 131.062 46.5433 130.26 46.5423 129.423V33.067C46.5433 32.2304 46.8755 31.4283 47.466 30.8367C48.0565 30.2451 48.8571 29.9123 49.6922 29.9112H132.43C133.265 29.9123 134.066 30.2451 134.656 30.8367C135.247 31.4283 135.579 32.2304 135.58 33.067V129.423Z" fill="#8C959F"/>
<path d="M110.38 41.7475H71.7415C71.2404 41.7468 70.76 41.5012 70.4057 41.0646C70.0514 40.628 69.8521 40.036 69.8516 39.4185V28.0326C69.8521 27.4151 70.0514 26.8231 70.4057 26.3865C70.7601 25.9499 71.2404 25.7043 71.7415 25.7036H110.38C110.882 25.7043 111.362 25.9499 111.716 26.3865C112.071 26.8231 112.27 27.4151 112.27 28.0326V39.4185C112.27 40.036 112.071 40.628 111.716 41.0646C111.362 41.5012 110.882 41.7468 110.38 41.7475Z" fill="#8C959F"/>
<path d="M91.0612 26.3347C93.3808 26.3347 95.2611 24.4509 95.2611 22.127C95.2611 19.8032 93.3808 17.9193 91.0612 17.9193C88.7417 17.9193 86.8613 19.8032 86.8613 22.127C86.8613 24.4509 88.7417 26.3347 91.0612 26.3347Z" fill="#8C959F"/>
<path d="M91.0613 24.6899C92.4741 24.6899 93.6194 23.5424 93.6194 22.127C93.6194 20.7115 92.4741 19.5641 91.0613 19.5641C89.6485 19.5641 88.5032 20.7115 88.5032 22.127C88.5032 23.5424 89.6485 24.6899 91.0613 24.6899Z" fill="white"/>
</g>
<defs>
<clipPath id="clip0_1385_15699">
<rect width="136" height="133" fill="white"/>
</clipPath>
</defs>
</svg>
