<svg width="20" height="20" viewBox="0 0 20 20" fill="none" xmlns="http://www.w3.org/2000/svg">
<path d="M2.58333 19.25C2.07917 19.25 1.64757 19.0705 1.28854 18.7114C0.929514 18.3524 0.75 17.9208 0.75 17.4167V4.58332C0.75 4.07915 0.929514 3.64756 1.28854 3.28853C1.64757 2.9295 2.07917 2.74999 2.58333 2.74999H10.7646L8.93125 4.58332H2.58333V17.4167H15.4167V11.0458L17.25 9.21249V17.4167C17.25 17.9208 17.0705 18.3524 16.7115 18.7114C16.3524 19.0705 15.9208 19.25 15.4167 19.25H2.58333ZM6.25 13.75V9.85415L14.6604 1.44374C14.8438 1.2604 15.05 1.1229 15.2792 1.03124C15.5083 0.939571 15.7375 0.893738 15.9667 0.893738C16.2111 0.893738 16.4441 0.939571 16.6656 1.03124C16.8872 1.1229 17.0896 1.2604 17.2729 1.44374L18.5562 2.74999C18.7243 2.93332 18.8542 3.13575 18.9458 3.35728C19.0375 3.57881 19.0833 3.80415 19.0833 4.03332C19.0833 4.26249 19.0413 4.48783 18.9573 4.70936C18.8733 4.93089 18.7396 5.13332 18.5562 5.31665L10.1458 13.75H6.25ZM8.08333 11.9167H9.36667L14.6833 6.59999L14.0417 5.95832L13.3771 5.31665L8.08333 10.6104V11.9167Z" fill="#7F56D9"/>
</svg>
