<svg width="24" height="24" viewBox="0 0 24 24" fill="none" xmlns="http://www.w3.org/2000/svg">
<path d="M12 12.1854C7.58879 12.1854 4 15.875 4 20.41C4 20.7358 4.25695 21 4.57388 21H19.4261C19.743 21 20 20.7358 20 20.41C20 15.875 16.4113 12.1854 12 12.1854ZM5.17156 19.82C5.42229 16.7262 7.62627 14.194 10.5086 13.5337L11.2251 14.2704L10.9634 17.5287C10.9525 17.6639 10.9883 17.7986 11.0645 17.9094L11.7948 18.9703C11.8419 19.0387 11.9184 19.0794 12 19.0794C12.0815 19.0794 12.158 19.0387 12.2051 18.9703L12.9354 17.9094C13.0116 17.7987 13.0474 17.6639 13.0366 17.5287L12.7748 14.2704L13.4913 13.5337C16.3737 14.194 18.5776 16.7262 18.8284 19.82H5.17156Z" fill="black"/>
<path d="M12 3C9.73204 3 7.88688 4.89696 7.88688 7.22863C7.88688 9.5603 9.73204 11.4573 12 11.4573C14.268 11.4573 16.1132 9.5603 16.1132 7.22863C16.1132 4.89696 14.268 3 12 3ZM12 10.2773C10.3649 10.2773 9.03464 8.90966 9.03464 7.22863C9.03464 5.5476 10.3649 4.17998 12 4.17998C13.6352 4.17998 14.9654 5.5476 14.9654 7.22863C14.9654 8.90966 13.6351 10.2773 12 10.2773Z" fill="black"/>
</svg>
