<svg width="23" height="23" viewBox="0 0 23 23" fill="none" xmlns="http://www.w3.org/2000/svg">
<path d="M11.4998 21.0837C10.1901 21.0837 8.95227 20.8321 7.7863 20.329C6.62032 19.8258 5.60209 19.139 4.73161 18.2686C3.86112 17.3981 3.17432 16.3798 2.67119 15.2139C2.16807 14.0479 1.9165 12.81 1.9165 11.5003C1.9165 10.1746 2.16807 8.93279 2.67119 7.7748C3.17432 6.61682 3.86112 5.60258 4.73161 4.7321C5.60209 3.86161 6.62032 3.1748 7.7863 2.67168C8.95227 2.16855 10.1901 1.91699 11.4998 1.91699C12.8255 1.91699 14.0674 2.16855 15.2254 2.67168C16.3833 3.1748 17.3976 3.86161 18.2681 4.7321C19.1386 5.60258 19.8254 6.61682 20.3285 7.7748C20.8316 8.93279 21.0832 10.1746 21.0832 11.5003C21.0832 12.81 20.8316 14.0479 20.3285 15.2139C19.8254 16.3798 19.1386 17.3981 18.2681 18.2686C17.3976 19.139 16.3833 19.8258 15.2254 20.329C14.0674 20.8321 12.8255 21.0837 11.4998 21.0837ZM11.4998 19.1191C11.9151 18.5441 12.2745 17.9451 12.578 17.3222C12.8814 16.6993 13.129 16.0364 13.3207 15.3337H9.679C9.87067 16.0364 10.1182 16.6993 10.4217 17.3222C10.7252 17.9451 11.0846 18.5441 11.4998 19.1191ZM9.00817 18.7357C8.72067 18.2087 8.46911 17.6616 8.25348 17.0946C8.03786 16.5276 7.85817 15.9406 7.71442 15.3337H4.88734C5.35053 16.1323 5.92952 16.8271 6.62432 17.418C7.31911 18.009 8.11373 18.4482 9.00817 18.7357ZM13.9915 18.7357C14.8859 18.4482 15.6806 18.009 16.3754 17.418C17.0701 16.8271 17.6491 16.1323 18.1123 15.3337H15.2853C15.1415 15.9406 14.9618 16.5276 14.7462 17.0946C14.5306 17.6616 14.279 18.2087 13.9915 18.7357ZM4.07275 13.417H7.33109C7.28317 13.0975 7.24723 12.7821 7.22327 12.4706C7.19932 12.1592 7.18734 11.8357 7.18734 11.5003C7.18734 11.1649 7.19932 10.8415 7.22327 10.53C7.24723 10.2186 7.28317 9.9031 7.33109 9.58366H4.07275C3.99289 9.9031 3.933 10.2186 3.89307 10.53C3.85314 10.8415 3.83317 11.1649 3.83317 11.5003C3.83317 11.8357 3.85314 12.1592 3.89307 12.4706C3.933 12.7821 3.99289 13.0975 4.07275 13.417ZM9.24775 13.417H13.7519C13.7998 13.0975 13.8358 12.7821 13.8597 12.4706C13.8837 12.1592 13.8957 11.8357 13.8957 11.5003C13.8957 11.1649 13.8837 10.8415 13.8597 10.53C13.8358 10.2186 13.7998 9.9031 13.7519 9.58366H9.24775C9.19984 9.9031 9.1639 10.2186 9.13994 10.53C9.11598 10.8415 9.104 11.1649 9.104 11.5003C9.104 11.8357 9.11598 12.1592 9.13994 12.4706C9.1639 12.7821 9.19984 13.0975 9.24775 13.417ZM15.6686 13.417H18.9269C19.0068 13.0975 19.0667 12.7821 19.1066 12.4706C19.1465 12.1592 19.1665 11.8357 19.1665 11.5003C19.1665 11.1649 19.1465 10.8415 19.1066 10.53C19.0667 10.2186 19.0068 9.9031 18.9269 9.58366H15.6686C15.7165 9.9031 15.7524 10.2186 15.7764 10.53C15.8004 10.8415 15.8123 11.1649 15.8123 11.5003C15.8123 11.8357 15.8004 12.1592 15.7764 12.4706C15.7524 12.7821 15.7165 13.0975 15.6686 13.417ZM15.2853 7.66699H18.1123C17.6491 6.86838 17.0701 6.17359 16.3754 5.58262C15.6806 4.99164 14.8859 4.55241 13.9915 4.26491C14.279 4.79199 14.5306 5.33904 14.7462 5.90605C14.9618 6.47307 15.1415 7.06005 15.2853 7.66699ZM9.679 7.66699H13.3207C13.129 6.96421 12.8814 6.30137 12.578 5.67845C12.2745 5.05553 11.9151 4.45658 11.4998 3.88158C11.0846 4.45658 10.7252 5.05553 10.4217 5.67845C10.1182 6.30137 9.87067 6.96421 9.679 7.66699ZM4.88734 7.66699H7.71442C7.85817 7.06005 8.03786 6.47307 8.25348 5.90605C8.46911 5.33904 8.72067 4.79199 9.00817 4.26491C8.11373 4.55241 7.31911 4.99164 6.62432 5.58262C5.92952 6.17359 5.35053 6.86838 4.88734 7.66699Z" fill="black"/>
</svg>
