<svg width="16" height="16" viewBox="0 0 16 16" fill="none" xmlns="http://www.w3.org/2000/svg">
<path d="M8.33366 15.3337C6.75588 15.3337 5.41699 14.7837 4.31699 13.6837C3.21699 12.5837 2.66699 11.2448 2.66699 9.66699V3.33366C2.66699 3.14477 2.73088 2.98644 2.85866 2.85866C2.98644 2.73088 3.14477 2.66699 3.33366 2.66699C3.52255 2.66699 3.68088 2.73088 3.80866 2.85866C3.93644 2.98644 4.00033 3.14477 4.00033 3.33366V7.33366H5.33366V2.00033C5.33366 1.81144 5.39755 1.6531 5.52533 1.52533C5.6531 1.39755 5.81144 1.33366 6.00033 1.33366C6.18921 1.33366 6.34755 1.39755 6.47533 1.52533C6.6031 1.6531 6.66699 1.81144 6.66699 2.00033V7.33366H8.00033V1.33366C8.00033 1.14477 8.06421 0.986437 8.19199 0.858659C8.31977 0.730881 8.4781 0.666992 8.66699 0.666992C8.85588 0.666992 9.01421 0.730881 9.14199 0.858659C9.26977 0.986437 9.33366 1.14477 9.33366 1.33366V7.33366H10.667V2.66699C10.667 2.4781 10.7309 2.31977 10.8587 2.19199C10.9864 2.06421 11.1448 2.00033 11.3337 2.00033C11.5225 2.00033 11.6809 2.06421 11.8087 2.19199C11.9364 2.31977 12.0003 2.4781 12.0003 2.66699V6.50033C11.6781 6.73366 11.4309 7.0281 11.2587 7.38366C11.0864 7.73921 11.0003 8.11144 11.0003 8.50033V9.33366H10.167C9.46699 9.33366 8.87533 9.57533 8.39199 10.0587C7.90866 10.542 7.66699 11.1337 7.66699 11.8337V12.667H8.66699V11.8337C8.66699 11.4114 8.81144 11.0559 9.10033 10.767C9.38921 10.4781 9.74477 10.3337 10.167 10.3337H12.0003V8.50033C12.0003 8.0781 12.1448 7.72255 12.4337 7.43366C12.7225 7.14477 13.0781 7.00033 13.5003 7.00033H14.0003V9.66699C14.0003 11.2448 13.4503 12.5837 12.3503 13.6837C11.2503 14.7837 9.91144 15.3337 8.33366 15.3337Z" fill="white"/>
</svg>
