<svg width="90" height="26" viewBox="0 0 90 26" fill="none" xmlns="http://www.w3.org/2000/svg">
  <path
    d="M12.6316 21.7183C17.65 21.7183 21.7183 17.65 21.7183 12.6316C21.7183 7.61317 17.65 3.54492 12.6316 3.54492C7.61317 3.54492 3.54492 7.61317 3.54492 12.6316C3.54492 17.65 7.61317 21.7183 12.6316 21.7183Z"
    stroke="#7F56D9" stroke-width="2.02073" />
  <path
    d="M21.0846 11.9404C20.027 11.5667 18.889 11.3633 17.7035 11.3633C12.5309 11.3633 8.26261 15.2351 7.63867 20.2387"
    stroke="#7F56D9" stroke-width="2.02073" />
  <path
    d="M15.1669 18.5486C16.334 18.5486 17.2801 17.6025 17.2801 16.4354C17.2801 15.2684 16.334 14.3223 15.1669 14.3223C13.9998 14.3223 13.0537 15.2684 13.0537 16.4354C13.0537 17.6025 13.9998 18.5486 15.1669 18.5486Z"
    fill="#7F56D9" />
  <path
    d="M40.5024 19.8423C39.0876 19.8423 37.8254 19.5336 36.7159 18.9164C35.6132 18.2923 34.7428 17.415 34.1048 16.2846C33.4737 15.1473 33.1582 13.8088 33.1582 12.2692C33.1582 10.7297 33.4772 9.3947 34.1152 8.26429C34.7602 7.12696 35.6409 6.24968 36.7575 5.63247C37.8809 5.00832 39.157 4.69624 40.5856 4.69624C41.3276 4.69624 42.035 4.776 42.7077 4.9355C43.3804 5.09501 43.9698 5.29959 44.4761 5.54925L44.2681 7.38008C43.7479 7.13042 43.1758 6.91891 42.5516 6.74553C41.9275 6.57216 41.2652 6.48547 40.5648 6.48547C39.4205 6.48547 38.46 6.74553 37.6833 7.26566C36.9066 7.77884 36.3171 8.47234 35.9149 9.34615C35.5196 10.22 35.3219 11.1943 35.3219 12.2692C35.3219 13.3442 35.5161 14.3185 35.9045 15.1923C36.2998 16.0662 36.8823 16.7631 37.6521 17.2832C38.4288 17.7964 39.3858 18.053 40.5232 18.053C41.2444 18.053 41.9102 17.9767 42.5204 17.8242C43.1376 17.6647 43.7202 17.4497 44.2681 17.1792L44.4761 19.0101C43.956 19.2458 43.37 19.4435 42.7181 19.603C42.0662 19.7625 41.3276 19.8423 40.5024 19.8423ZM46.294 19.551V9.35655H47.8335L48.0624 11.0418C48.5825 10.3968 49.0784 9.92176 49.5499 9.61662C50.0284 9.30454 50.5382 9.1485 51.0791 9.1485C51.2525 9.1485 51.412 9.16931 51.5576 9.21092L51.3704 11.2706C51.2802 11.2498 51.1831 11.2359 51.0791 11.229C50.982 11.2151 50.871 11.2082 50.7462 11.2082C50.2053 11.2082 49.706 11.3296 49.2483 11.5723C48.7975 11.8081 48.4785 12.0681 48.2912 12.3525V19.551H46.294ZM55.1064 19.759C54.4754 19.759 53.924 19.6307 53.4524 19.3741C52.9807 19.1175 52.6132 18.7673 52.3496 18.3235C52.093 17.8797 51.9647 17.3734 51.9647 16.8047C51.9647 16.2291 52.0896 15.7367 52.3392 15.3276C52.5958 14.9115 52.9356 14.5682 53.3588 14.2977C53.7888 14.0203 54.2673 13.8019 54.7944 13.6424C55.3214 13.4759 55.8658 13.358 56.4276 13.2887C56.9962 13.2124 57.5406 13.1708 58.0607 13.1639C58.0607 12.193 57.87 11.5584 57.4886 11.2602C57.1072 10.962 56.5559 10.8129 55.8346 10.8129C55.4532 10.8129 55.044 10.8718 54.6071 10.9897C54.1772 11.1076 53.6917 11.3538 53.1506 11.7283L52.8802 10.2096C53.2895 9.89748 53.7992 9.64436 54.4095 9.45018C55.0198 9.24906 55.6612 9.1485 56.3339 9.1485C57.1939 9.1485 57.8874 9.30107 58.4144 9.60621C58.9415 9.90442 59.3264 10.4107 59.5691 11.125C59.8118 11.8393 59.9332 12.8102 59.9332 14.0377V16.1182C59.9332 16.6036 59.954 17.0058 59.9956 17.3249C60.0442 17.6369 60.1482 17.8727 60.3077 18.0322C60.4741 18.1848 60.7377 18.2611 61.0983 18.2611H61.2855L60.9942 19.759H60.8486C60.2453 19.759 59.7772 19.7001 59.4443 19.5822C59.1183 19.4643 58.8687 19.2944 58.6953 19.0725C58.5219 18.8505 58.3659 18.5801 58.2272 18.2611C57.8458 18.7049 57.395 19.0655 56.8749 19.3429C56.3547 19.6203 55.7653 19.759 55.1064 19.759ZM55.4601 18.2611C55.9594 18.2611 56.4414 18.1362 56.9061 17.8866C57.3777 17.6369 57.7625 17.304 58.0607 16.8879V14.4538C57.069 14.4884 56.2646 14.5855 55.6474 14.745C55.0371 14.9045 54.5898 15.1438 54.3055 15.4628C54.0211 15.7818 53.879 16.1944 53.879 16.7007C53.879 17.2486 54.0246 17.6473 54.3159 17.897C54.6141 18.1397 54.9955 18.2611 55.4601 18.2611ZM66.7666 19.759C65.8998 19.759 65.1161 19.5232 64.4157 19.0517C63.7152 18.5801 63.157 17.9455 62.7409 17.148C62.3317 16.3505 62.1271 15.4593 62.1271 14.4746C62.1271 13.5384 62.3144 12.6645 62.6889 11.8531C63.0703 11.0418 63.6077 10.3899 64.3012 9.89748C64.9947 9.39816 65.8165 9.1485 66.7666 9.1485C67.4463 9.1485 68.1016 9.29761 68.7327 9.59581C69.3707 9.88708 69.8874 10.376 70.2827 11.0626L69.8874 11.333V3.94727H71.7598V19.551H70.0954L69.7417 17.3873L70.2203 17.7201C69.922 18.3928 69.4539 18.9026 68.8159 19.2493C68.1779 19.5891 67.4948 19.759 66.7666 19.759ZM67.0995 18.0946C67.5711 18.0946 68.0357 17.9733 68.4934 17.7305C68.9581 17.4878 69.3395 17.1029 69.6377 16.5759C69.9429 16.0419 70.0954 15.3414 70.0954 14.4746C70.0954 13.6701 69.9429 12.9974 69.6377 12.4565C69.3395 11.9086 68.9581 11.4995 68.4934 11.229C68.0357 10.9516 67.5711 10.8129 67.0995 10.8129C66.4615 10.8129 65.9136 10.9724 65.4559 11.2914C64.9982 11.6104 64.648 12.0473 64.4053 12.6021C64.1625 13.15 64.0412 13.7741 64.0412 14.4746C64.0412 15.1334 64.1625 15.7367 64.4053 16.2846C64.648 16.8325 64.9982 17.2728 65.4559 17.6057C65.9136 17.9317 66.4615 18.0946 67.0995 18.0946ZM76.8922 19.759C76.2334 19.759 75.7098 19.6411 75.3214 19.4053C74.94 19.1626 74.6661 18.854 74.4996 18.4795C74.3332 18.105 74.25 17.7132 74.25 17.304V3.94727H76.1224V16.2222C76.1224 16.8047 76.1606 17.2416 76.2368 17.5329C76.3131 17.8242 76.4657 18.0184 76.6946 18.1154C76.9303 18.2125 77.2875 18.2611 77.766 18.2611L77.4955 19.759H76.8922ZM83.9753 19.759C82.7755 19.759 81.7665 19.5128 80.9482 19.0205C80.1299 18.5281 79.5092 17.8762 79.0861 17.0648C78.67 16.2465 78.462 15.3484 78.462 14.3705C78.462 13.4205 78.6562 12.5501 79.0445 11.7595C79.4398 10.9689 80.0085 10.3379 80.7505 9.86628C81.4995 9.38776 82.4011 9.1485 83.4552 9.1485C84.3012 9.1485 85.0537 9.31841 85.7125 9.65823C86.3783 9.9911 86.8984 10.48 87.2729 11.125C87.6543 11.763 87.845 12.5397 87.845 13.4551C87.845 13.6008 87.8381 13.7603 87.8242 13.9336C87.8173 14.1001 87.7965 14.2735 87.7618 14.4538H80.376C80.4662 15.3969 80.6916 16.132 81.0522 16.6591C81.4128 17.1862 81.8671 17.5572 82.4149 17.7722C82.9628 17.9871 83.5592 18.0946 84.2042 18.0946C84.6757 18.0946 85.1681 18.0461 85.6813 17.949C86.1945 17.8519 86.6799 17.6993 87.1377 17.4913L87.3873 18.9684C86.992 19.1418 86.51 19.3187 85.9414 19.499C85.3727 19.6723 84.7173 19.759 83.9753 19.759ZM80.5425 13.1639H85.9102C85.9102 12.6853 85.82 12.2692 85.6397 11.9156C85.4594 11.5619 85.1855 11.2914 84.8179 11.1042C84.4503 10.91 83.9822 10.8129 83.4136 10.8129C82.5814 10.8129 81.9399 11.021 81.4891 11.4371C81.0453 11.8462 80.7297 12.4218 80.5425 13.1639Z"
    fill="#7F56D9" />
</svg>
