<svg width="55" height="25" viewBox="0 0 55 25" fill="none" xmlns="http://www.w3.org/2000/svg">
<path d="M36.167 20.8333H30.9587C30.9587 20.4861 30.9456 20.1388 30.9196 19.7916C30.8936 19.4444 30.8545 19.0972 30.8024 18.75H36.167V6.24996H19.5003V7.44788C19.1531 7.39579 18.8059 7.35673 18.4587 7.33069C18.1114 7.30465 17.7642 7.29163 17.417 7.29163V6.24996C17.417 5.67704 17.621 5.18659 18.029 4.77861C18.437 4.37062 18.9274 4.16663 19.5003 4.16663H36.167C36.7399 4.16663 37.2304 4.37062 37.6383 4.77861C38.0463 5.18659 38.2503 5.67704 38.2503 6.24996V18.75C38.2503 19.3229 38.0463 19.8133 37.6383 20.2213C37.2304 20.6293 36.7399 20.8333 36.167 20.8333ZM17.417 20.8333V17.7083C18.285 17.7083 19.0229 18.0121 19.6305 18.6198C20.2382 19.2274 20.542 19.9652 20.542 20.8333H17.417ZM22.6253 20.8333C22.6253 19.3923 22.1175 18.164 21.1019 17.1484C20.0863 16.1328 18.858 15.625 17.417 15.625V13.5416C19.4482 13.5416 21.1713 14.2491 22.5863 15.664C24.0012 17.079 24.7087 18.802 24.7087 20.8333H22.6253ZM26.792 20.8333C26.792 19.5312 26.5446 18.3116 26.0498 17.1744C25.555 16.0373 24.8866 15.0477 24.0446 14.2057C23.2026 13.3637 22.213 12.6953 21.0758 12.2005C19.9387 11.7057 18.7191 11.4583 17.417 11.4583V9.37496C18.9969 9.37496 20.4812 9.67444 21.8701 10.2734C23.259 10.8724 24.4743 11.6927 25.516 12.7343C26.5576 13.776 27.3779 14.9913 27.9769 16.3802C28.5758 17.7691 28.8753 19.2534 28.8753 20.8333H26.792Z" fill="#7C8A94"/>
</svg>
