<svg width="23" height="23" viewBox="0 0 23 23" fill="none" xmlns="http://www.w3.org/2000/svg">
<path d="M2.15604 17.9687V16.5312H20.8435V17.9687H2.15604ZM2.9632 12.2077L1.9754 11.6363L2.84532 10.1068H1.10547V8.964H2.84532L1.9754 7.48242L2.9632 6.91101L3.83312 8.39283L4.70305 6.91101L5.69085 7.48242L4.82093 8.964H6.56078V10.1068H4.82093L5.69085 11.6363L4.70305 12.2077L3.83312 10.678L2.9632 12.2077ZM10.6299 12.2077L9.64206 11.6363L10.512 10.1068H8.77214V8.964H10.512L9.64206 7.48242L10.6299 6.91101L11.4998 8.39283L12.3697 6.91101L13.3575 7.48242L12.4876 8.964H14.2274V10.1068H12.4876L13.3575 11.6363L12.3697 12.2077L11.4998 10.678L10.6299 12.2077ZM18.2965 12.2077L17.3087 11.6363L18.1787 10.1068H16.4388V8.964H18.1787L17.3087 7.48242L18.2965 6.91101L19.1665 8.39283L20.0364 6.91101L21.0242 7.48242L20.1543 8.964H21.8941V10.1068H20.1543L21.0242 11.6363L20.0364 12.2077L19.1665 10.678L18.2965 12.2077Z" fill="black"/>
</svg>
