<svg width="22" height="22" viewBox="0 0 22 22" fill="none" xmlns="http://www.w3.org/2000/svg">
<path d="M0.916748 18.3333V15.7667C0.916748 15.2472 1.05043 14.7698 1.31779 14.3344C1.58515 13.899 1.94036 13.5667 2.38341 13.3375C3.33064 12.8639 4.29314 12.5087 5.27091 12.2719C6.24869 12.0351 7.24175 11.9167 8.25008 11.9167C9.25841 11.9167 10.2515 12.0351 11.2292 12.2719C12.207 12.5087 13.1695 12.8639 14.1167 13.3375C14.5598 13.5667 14.915 13.899 15.1824 14.3344C15.4497 14.7698 15.5834 15.2472 15.5834 15.7667V18.3333H0.916748ZM17.4167 18.3333V15.5833C17.4167 14.9111 17.2296 14.2656 16.8553 13.6469C16.481 13.0281 15.9501 12.4972 15.2626 12.0542C16.0417 12.1458 16.7751 12.3024 17.4626 12.524C18.1501 12.7455 18.7917 13.0167 19.3876 13.3375C19.9376 13.6431 20.3577 13.983 20.648 14.3573C20.9383 14.7316 21.0834 15.1403 21.0834 15.5833V18.3333H17.4167ZM8.25008 11C7.24175 11 6.37855 10.641 5.6605 9.92292C4.94244 9.20486 4.58341 8.34167 4.58341 7.33333C4.58341 6.325 4.94244 5.4618 5.6605 4.74375C6.37855 4.02569 7.24175 3.66667 8.25008 3.66667C9.25841 3.66667 10.1216 4.02569 10.8397 4.74375C11.5577 5.4618 11.9167 6.325 11.9167 7.33333C11.9167 8.34167 11.5577 9.20486 10.8397 9.92292C10.1216 10.641 9.25841 11 8.25008 11ZM17.4167 7.33333C17.4167 8.34167 17.0577 9.20486 16.3397 9.92292C15.6216 10.641 14.7584 11 13.7501 11C13.582 11 13.3681 10.9809 13.1084 10.9427C12.8487 10.9045 12.6348 10.8625 12.4667 10.8167C12.8792 10.3278 13.1963 9.78542 13.4178 9.18958C13.6393 8.59375 13.7501 7.975 13.7501 7.33333C13.7501 6.69167 13.6393 6.07292 13.4178 5.47708C13.1963 4.88125 12.8792 4.33889 12.4667 3.85C12.6806 3.77361 12.8945 3.72396 13.1084 3.70104C13.3223 3.67812 13.5362 3.66667 13.7501 3.66667C14.7584 3.66667 15.6216 4.02569 16.3397 4.74375C17.0577 5.4618 17.4167 6.325 17.4167 7.33333ZM2.75008 16.5H13.7501V15.7667C13.7501 15.5986 13.7081 15.4458 13.624 15.3083C13.54 15.1708 13.4292 15.0639 13.2917 14.9875C12.4667 14.575 11.6341 14.2656 10.7938 14.0594C9.95355 13.8531 9.10564 13.75 8.25008 13.75C7.39453 13.75 6.54661 13.8531 5.70633 14.0594C4.86605 14.2656 4.03341 14.575 3.20841 14.9875C3.07091 15.0639 2.96015 15.1708 2.87612 15.3083C2.79209 15.4458 2.75008 15.5986 2.75008 15.7667V16.5ZM8.25008 9.16667C8.75425 9.16667 9.18584 8.98715 9.54487 8.62812C9.9039 8.2691 10.0834 7.8375 10.0834 7.33333C10.0834 6.82917 9.9039 6.39757 9.54487 6.03854C9.18584 5.67951 8.75425 5.5 8.25008 5.5C7.74591 5.5 7.31432 5.67951 6.95529 6.03854C6.59626 6.39757 6.41675 6.82917 6.41675 7.33333C6.41675 7.8375 6.59626 8.2691 6.95529 8.62812C7.31432 8.98715 7.74591 9.16667 8.25008 9.16667Z" fill="#2E90FA"/>
</svg>
