<svg width="54" height="25" viewBox="0 0 54 25" fill="none" xmlns="http://www.w3.org/2000/svg">
<path d="M27 13C25.625 13 24.4479 12.5104 23.4688 11.5312C22.4896 10.5521 22 9.375 22 8C22 6.625 22.4896 5.44792 23.4688 4.46875C24.4479 3.48958 25.625 3 27 3C28.375 3 29.5521 3.48958 30.5312 4.46875C31.5104 5.44792 32 6.625 32 8C32 9.375 31.5104 10.5521 30.5312 11.5312C29.5521 12.5104 28.375 13 27 13ZM17 23V19.5C17 18.7917 17.1823 18.1406 17.5469 17.5469C17.9115 16.9531 18.3958 16.5 19 16.1875C20.2917 15.5417 21.6042 15.0573 22.9375 14.7344C24.2708 14.4115 25.625 14.25 27 14.25C28.375 14.25 29.7292 14.4115 31.0625 14.7344C32.3958 15.0573 33.7083 15.5417 35 16.1875C35.6042 16.5 36.0885 16.9531 36.4531 17.5469C36.8177 18.1406 37 18.7917 37 19.5V23H17ZM19.5 20.5H34.5V19.5C34.5 19.2708 34.4427 19.0625 34.3281 18.875C34.2135 18.6875 34.0625 18.5417 33.875 18.4375C32.75 17.875 31.6146 17.4531 30.4688 17.1719C29.3229 16.8906 28.1667 16.75 27 16.75C25.8333 16.75 24.6771 16.8906 23.5312 17.1719C22.3854 17.4531 21.25 17.875 20.125 18.4375C19.9375 18.5417 19.7865 18.6875 19.6719 18.875C19.5573 19.0625 19.5 19.2708 19.5 19.5V20.5ZM27 10.5C27.6875 10.5 28.276 10.2552 28.7656 9.76562C29.2552 9.27604 29.5 8.6875 29.5 8C29.5 7.3125 29.2552 6.72396 28.7656 6.23438C28.276 5.74479 27.6875 5.5 27 5.5C26.3125 5.5 25.724 5.74479 25.2344 6.23438C24.7448 6.72396 24.5 7.3125 24.5 8C24.5 8.6875 24.7448 9.27604 25.2344 9.76562C25.724 10.2552 26.3125 10.5 27 10.5Z" fill="#7C8A94"/>
</svg>
