<svg width="15" height="15" viewBox="0 0 15 15" fill="none" xmlns="http://www.w3.org/2000/svg">
<path d="M10.1666 4.83325V2.96659C10.1666 2.21985 10.1666 1.84648 10.0213 1.56126C9.89343 1.31038 9.68946 1.10641 9.43857 0.978577C9.15336 0.833252 8.77999 0.833252 8.03325 0.833252H2.96659C2.21985 0.833252 1.84648 0.833252 1.56126 0.978577C1.31038 1.10641 1.10641 1.31038 0.978577 1.56126C0.833252 1.84648 0.833252 2.21985 0.833252 2.96659V8.03325C0.833252 8.77999 0.833252 9.15336 0.978577 9.43857C1.10641 9.68946 1.31038 9.89343 1.56126 10.0213C1.84648 10.1666 2.21985 10.1666 2.96659 10.1666H4.83325M7.49992 9.49992L8.83325 10.8333L11.8333 7.83325M6.96659 14.1666H12.0333C12.78 14.1666 13.1534 14.1666 13.4386 14.0213C13.6895 13.8934 13.8934 13.6895 14.0213 13.4386C14.1666 13.1534 14.1666 12.78 14.1666 12.0333V6.96659C14.1666 6.21985 14.1666 5.84648 14.0213 5.56126C13.8934 5.31038 13.6895 5.10641 13.4386 4.97858C13.1534 4.83325 12.78 4.83325 12.0333 4.83325H6.96659C6.21985 4.83325 5.84648 4.83325 5.56126 4.97858C5.31038 5.10641 5.10641 5.31038 4.97858 5.56126C4.83325 5.84648 4.83325 6.21985 4.83325 6.96659V12.0333C4.83325 12.78 4.83325 13.1534 4.97858 13.4386C5.10641 13.6895 5.31038 13.8934 5.56126 14.0213C5.84648 14.1666 6.21985 14.1666 6.96659 14.1666Z" stroke="black" stroke-width="1.66667" stroke-linecap="round" stroke-linejoin="round"/>
</svg>
