<svg width="17" height="17" viewBox="0 0 17 17" fill="none" xmlns="http://www.w3.org/2000/svg">
<path d="M8.50114 8.49943C7.44697 8.49943 6.54454 8.12408 5.79385 7.37339C5.04315 6.62269 4.66781 5.72026 4.66781 4.6661C4.66781 3.61193 5.04315 2.7095 5.79385 1.95881C6.54454 1.20811 7.44697 0.832764 8.50114 0.832764C9.55531 0.832764 10.4577 1.20811 11.2084 1.95881C11.9591 2.7095 12.3345 3.61193 12.3345 4.6661C12.3345 5.72026 11.9591 6.62269 11.2084 7.37339C10.4577 8.12408 9.55531 8.49943 8.50114 8.49943ZM0.834473 16.1661V13.4828C0.834473 12.9397 0.97423 12.4406 1.25374 11.9854C1.53326 11.5302 1.90461 11.1828 2.36781 10.9432C3.35808 10.448 4.36433 10.0767 5.38656 9.82912C6.40878 9.58155 7.44697 9.45776 8.50114 9.45776C9.55531 9.45776 10.5935 9.58155 11.6157 9.82912C12.6379 10.0767 13.6442 10.448 14.6345 10.9432C15.0977 11.1828 15.469 11.5302 15.7485 11.9854C16.028 12.4406 16.1678 12.9397 16.1678 13.4828V16.1661H0.834473ZM2.75114 14.2494H14.2511V13.4828C14.2511 13.3071 14.2072 13.1473 14.1194 13.0036C14.0315 12.8598 13.9157 12.748 13.772 12.6682C12.9095 12.2369 12.039 11.9135 11.1605 11.6979C10.282 11.4822 9.39558 11.3744 8.50114 11.3744C7.60669 11.3744 6.72024 11.4822 5.84176 11.6979C4.96329 11.9135 4.09281 12.2369 3.23031 12.6682C3.08656 12.748 2.97076 12.8598 2.88291 13.0036C2.79506 13.1473 2.75114 13.3071 2.75114 13.4828V14.2494ZM8.50114 6.58276C9.02822 6.58276 9.47944 6.39509 9.85478 6.01974C10.2301 5.6444 10.4178 5.19318 10.4178 4.6661C10.4178 4.13901 10.2301 3.6878 9.85478 3.31245C9.47944 2.9371 9.02822 2.74943 8.50114 2.74943C7.97406 2.74943 7.52284 2.9371 7.14749 3.31245C6.77215 3.6878 6.58447 4.13901 6.58447 4.6661C6.58447 5.19318 6.77215 5.6444 7.14749 6.01974C7.52284 6.39509 7.97406 6.58276 8.50114 6.58276Z" fill="black"/>
</svg>
